<mxfile host="app.diagrams.net" modified="2024-07-10T05:39:32.026Z" agent="Mozilla/5.0 (Windows NT 10.0; Win64; x64) AppleWebKit/537.36 (KHTML, like Gecko) Chrome/124.0.0.0 Safari/537.36 Edg/124.0.0.0" version="24.6.4" etag="FpJEPZ31mP4Nikj__ubv" type="github">
  <diagram name="第 1 页" id="tuHyEgSeaT6EkNWI_Xfq">
    <mxGraphModel>
      <root>
        <mxCell id="0" />
        <mxCell id="1" parent="0" />
      </root>
    </mxGraphModel>
  </diagram>
</mxfile>
